<svg xmlns="http://www.w3.org/2000/svg" viewBox="0 0 32 32" fill="none">
  <rect width="32" height="32" rx="9" fill="#312E81"/>
  <path
    fill="#EEF2FF"
    d="M8.5 11.5c0-1.9 1.6-3.5 3.5-3.5h2.5v2.2h-2.2c-.7 0-1.2.6-1.2 1.3s.5 1.2 1.2 1.2h1.4c2.1 0 3.7 1.7 3.7 3.7 0 2.1-1.7 3.8-3.8 3.8H10v-2.2h2.6c.8 0 1.4-.6 1.4-1.4 0-.8-.6-1.4-1.4-1.4h-1.3C9.6 15.2 8 13.5 8 11.5Z"
  />
  <path
    fill="#A5B4FC"
    d="M22.8 9.8h2.2v3.2c0 2.9-2.3 5.2-5.2 5.2h-.8v-2.1h.6c1.4 0 2.5-1.1 2.5-2.5v-3.8Z"
  />
  <circle cx="16" cy="22.5" r="2.2" fill="#C7D2FE"/>
</svg>
